<svg width="26" height="23" viewBox="0 0 26 23" fill="none" xmlns="http://www.w3.org/2000/svg">
<path d="M25.3 10L14.7 0.6C14.2 0.2 13.6 0 13 0C12.4 0 11.8 0.2 11.3 0.6L7.2 4.3C6.9 4.6 6.8 5 7.1 5.3C7.4 5.6 7.8 5.6 8.1 5.4L12.4 1.6C12.6 1.5 12.8 1.4 13 1.4C13.2 1.4 13.5 1.5 13.6 1.6L24.2 11C24.5 11.3 24.5 11.8 24.2 12.1C24 12.3 23.8 12.3 23.6 12.3H22.4C22 12.3 21.6 12.6 21.6 13V20.6C21.6 21.2 21 21.7 20.3 21.7H17V17C17 15.6 15.7 14.5 14.2 14.5H11.8C10.3 14.5 9 15.6 9 17V21.7H5.6C4.9 21.7 4.3 21.2 4.3 20.6V13C4.3 12.6 4 12.3 3.5 12.3H2.4C2.2 12.3 2 12.2 1.8 12.1C1.5 11.8 1.5 11.3 1.8 11L5.3 7.9C5.6 7.6 5.6 7.2 5.4 6.9C5.1 6.6 4.7 6.6 4.4 6.8L0.700002 10C-0.199998 10.8 -0.199998 12.2 0.700002 13C1.1 13.4 1.7 13.6 2.3 13.6C2.3 13.6 2.3 13.6 2.4 13.6H2.8V20.5C2.8 21.9 4.1 23 5.6 23H9.7C10.1 23 10.5 22.7 10.5 22.3V16.9C10.5 16.3 11.1 15.8 11.8 15.8H14.2C14.9 15.8 15.5 16.3 15.5 16.9V22.3C15.5 22.7 15.8 23 16.3 23H20.4C21.9 23 23.2 21.9 23.2 20.5V13.6H23.6C24.2 13.6 24.8 13.4 25.3 13C26.2 12.2 26.2 10.8 25.3 10Z" fill="#9194BB"/>
</svg>
