<svg width="29" height="25" viewBox="0 0 29 25" fill="none" xmlns="http://www.w3.org/2000/svg">
<g id="Wallets icon">
<path id="Path" fill-rule="evenodd" clip-rule="evenodd" d="M1.71905 18.7005V21.2005C1.71905 22.6005 2.91905 23.8005 4.31905 23.8005H6.71905C6.61905 21.0005 4.41905 18.8005 1.71905 18.7005Z" stroke="#9EA1C6" stroke-width="1.5" stroke-linecap="round" stroke-linejoin="round"/>
<path id="Path_2" d="M1.7 14V7.39999C1.7 5.99999 2.8 4.89999 4.2 4.89999L13.4748 4.89999" stroke="#9EA1C6" stroke-width="1.5" stroke-linecap="round" stroke-linejoin="round"/>
<path id="Path_3" d="M26.3 17.9V21.3C26.3 22.7 25.2 23.8 23.8 23.8H4.2C2.8 23.8 1.7 22.7 1.7 21.3V17.7" stroke="#9EA1C6" stroke-width="1.5" stroke-linecap="round" stroke-linejoin="round"/>
<path id="Path_4" d="M22.8945 4.89999H23.7C25.1 4.89999 26.2 5.99999 26.2 7.39999V13.3" stroke="#9EA1C6" stroke-width="1.5" stroke-linecap="round" stroke-linejoin="round"/>
<path id="Path_5" fill-rule="evenodd" clip-rule="evenodd" d="M24.3 8.20001H7.56726L19.2584 1.80001C19.9584 1.40001 20.8584 1.70001 21.2584 2.40001L24.3 8.20001Z" stroke="#9EA1C6" stroke-width="1.5" stroke-linecap="round" stroke-linejoin="round"/>
<path id="Path_6" d="M26.2 8.20001H24.2H7.1H5.2" stroke="#9EA1C6" stroke-width="1.5" stroke-linecap="round" stroke-linejoin="round"/>
<path id="Path_7" fill-rule="evenodd" clip-rule="evenodd" d="M27.5 13.3V17.9H22.4C21.1 17.9 20.1 16.9 20.1 15.6C20.1 15 20.4 14.4 20.8 14C21.2 13.6 21.8 13.3 22.4 13.3H27.5V13.3Z" stroke="#9EA1C6" stroke-width="1.5" stroke-linecap="round" stroke-linejoin="round"/>
<circle id="Oval" cx="23" cy="15.6" r="0.8" fill="#9EA1C6"/>
</g>
</svg>
